<svg xmlns="http://www.w3.org/2000/svg" xmlns:xlink="http://www.w3.org/1999/xlink" viewBox="0 0 512 512"><defs><style>.cls-1{isolation:isolate;}.cls-2{fill:url(#Degradado_sin_nombre_15);}.cls-3{opacity:0.53;mix-blend-mode:overlay;}.cls-4{fill:#fff;}</style><linearGradient id="Degradado_sin_nombre_15" x1="0.49" y1="255.75" x2="512" y2="255.75" gradientUnits="userSpaceOnUse"><stop offset="0" stop-color="#2e3192" stop-opacity="0.7"/><stop offset="1" stop-color="#662d91" stop-opacity="0.8"/></linearGradient></defs><title>logo</title><g class="cls-1"><g id="Capa_1" data-name="Capa 1"><circle class="cls-2" cx="256.25" cy="255.75" r="255.75"/><g class="cls-3"><path class="cls-4" d="M438.54,392.54c-19.19,14.17-57.83,39.59-108,54.64-56.23,16.88-106.85,16.44-153.66-7.38-41.24-21.28-76-64.94-93.35-122.83C50.83,206,102.59,102.12,227.19,64.73c43-12.91,79.45-13.63,97.75-10.7l.17,42.62c-22.5-2.87-49.46-2.59-86.94,8.66-90.42,27.13-132.53,101.07-104.57,194.24,28.29,94.28,101.79,132.92,188.34,106.94,31.42-9.43,51.6-20.29,61-29.11L349.66,266.57l-75.53,22.66-11.58-38.59,122.39-36.73Z"/></g><path class="cls-4" d="M114.78,247.25V216.7h70V321.6a126.37,126.37,0,0,1-28.29,9.33,160.46,160.46,0,0,1-32.06,3q-20.47,0-36.8-6.32A72.59,72.59,0,0,1,59.85,308.8q-11.44-12.49-17.53-31t-6.1-42.89q0-24.53,6.4-43.95t18.66-32.88a79.91,79.91,0,0,1,30.1-20.54q17.83-7.07,40.71-7.07a147.86,147.86,0,0,1,26.41,2.33A225.12,225.12,0,0,1,184.16,139v36.57A133.86,133.86,0,0,0,159.55,167a111,111,0,0,0-27.16-3.39,58.61,58.61,0,0,0-24.46,4.82,47.84,47.84,0,0,0-17.76,13.69,61,61,0,0,0-10.84,21.82,106.53,106.53,0,0,0-3.69,29.2,127.45,127.45,0,0,0,2.86,28.22,57.62,57.62,0,0,0,9.26,21.37,41.57,41.57,0,0,0,16.48,13.47q10.08,4.67,24.53,4.66,3.46,0,6-.22a44.57,44.57,0,0,0,4.82-.68q2.26-.45,4.29-1.05t4.29-1.35V247.25Z"/><path class="cls-4" d="M311.48,313.77a274.23,274.23,0,0,1-16.63,34.84,112.89,112.89,0,0,1-19,25,70.65,70.65,0,0,1-23.1,15.05,76.84,76.84,0,0,1-28.52,5q-3.76,0-8.2-.38t-9.11-1.13V361l4.14.68q2.33.37,4.89.6t5.19.38q2.63.15,4.89.15a28.62,28.62,0,0,0,11.74-2.41,36.16,36.16,0,0,0,10-6.7,52,52,0,0,0,8.35-10.23,81.55,81.55,0,0,0,6.62-13L202.07,177.57H243l31.76,86.69,9.48,28,9.33-26.79,32.06-87.89h39.43Z"/><path class="cls-4" d="M452.79,287a23.39,23.39,0,0,1,16.56,6.77,24.17,24.17,0,0,1,5,7.45,23.72,23.72,0,0,1,0,18.51,24.17,24.17,0,0,1-5,7.45,23.31,23.31,0,0,1-38.08-7.45,24.61,24.61,0,0,1,0-18.51A23.19,23.19,0,0,1,452.79,287Zm15.8-17.61H437.14l-5.57-151.55h42.59Z"/></g></g></svg>